<?xml version="1.0" standalone="no"?><!DOCTYPE svg PUBLIC "-//W3C//DTD SVG 1.1//EN" "http://www.w3.org/Graphics/SVG/1.1/DTD/svg11.dtd"><svg t="1557191521026" class="icon" style="" viewBox="0 0 1180 1024" version="1.1" xmlns="http://www.w3.org/2000/svg" p-id="3613" xmlns:xlink="http://www.w3.org/1999/xlink" width="18.4375" height="16"><defs><style type="text/css"></style></defs><path d="M994.046102 312.667119c-25.773559-61.006102-62.741695-115.764068-109.689492-162.711865C837.322034 102.920678 782.564068 66.039322 721.644746 40.265763 658.469153 13.537627 591.388475 0 522.311864 0S386.154576 13.537627 322.978983 40.265763C262.059661 66.039322 207.301695 102.920678 160.267119 149.955254S76.351186 251.747797 50.577627 312.667119C23.849492 375.842712 10.311864 442.92339 10.311864 512s13.537627 136.157288 40.265763 199.332881C76.351186 772.252203 113.232542 827.010169 160.267119 874.044746c47.034576 47.034576 101.792542 83.915932 162.711864 109.689491 63.088814 26.728136 130.169492 40.265763 199.332881 40.265763s136.157288-13.537627 199.332882-40.265763c61.006102-25.773559 115.764068-62.741695 162.711864-109.689491 47.034576-47.034576 83.915932-101.792542 109.689492-162.711865 26.728136-63.088814 40.265763-130.169492 40.265762-199.332881s-13.537627-136.157288-40.265762-199.332881z m-33.149831 384.607457c-23.951186 56.667119-58.315932 107.60678-101.966102 151.256949-43.736949 43.736949-94.589831 78.014915-151.256949 101.966102-58.663051 24.818983-121.057627 37.402034-185.274576 37.402034s-126.611525-12.583051-185.274576-37.402034c-56.667119-23.951186-107.60678-58.315932-151.256949-101.966102-43.736949-43.736949-78.014915-94.589831-101.966102-151.256949C58.908475 638.611525 46.325424 576.216949 46.325424 512S58.908475 385.388475 83.727458 326.725424c23.951186-56.667119 58.315932-107.60678 101.966101-151.256949 43.736949-43.736949 94.589831-78.014915 151.256949-101.966102C395.700339 48.59661 458.094915 36.013559 522.311864 36.013559S648.92339 48.59661 707.586441 73.415593c56.667119 23.951186 107.60678 58.315932 151.256949 101.966102 43.736949 43.736949 78.014915 94.589831 101.966102 151.256949 24.818983 58.663051 37.402034 121.057627 37.402033 185.274576s-12.496271 126.698305-37.315254 185.361356z" p-id="3614"></path><path d="M698.387797 252.268475s-41.480678 54.844746-50.332204 86.692881c-8.938305 31.848136-42.261695 39.224407-59.270508 56.23322C571.776271 412.20339 410.192542 432.249492 362.897627 692.241356c0 0 0 36.360678-44.431186 46.687458-44.431186 10.413559-94.850169 22.562712-103.701695 11.107796-8.157288-10.587119 56.23322-34.798644 56.23322-34.798644s31.848136-20.740339 31.848136-28.897627c0-8.157288-58.576271 14.839322-58.576271 14.839322s-114.115254 38.530169-74.804068 80.097627c39.224407 41.480678 184.493559 0 211.915932-11.802034s67.341017-17.789831 85.998644-1.475254c18.484068 16.314576 31.153898 23.690847 94.76339 20.046102 63.696271-3.731525 117.065763-3.731525 117.065763-3.731526s24.471864-23.690847-20.740339-34.798644l-41.480678-3.037288s-34.017627 0.694237-6.682034-35.579661c27.422373-36.360678 25.947119-59.964746 25.947118-59.964746s17.008814-0.694237 22.909831 27.422373 14.839322 84.43661 63.002034 88.862373c0 0 10.413559 34.017627 63.696271 15.533559 0 0 27.422373-14.839322-6.682034-31.153898l-12.583051-2.169491S713.227119 649.458983 715.48339 619.780339c0 0-5.901017-23.690847 14.145085-40.699661 20.046102-17.008814 73.328814-83.655593 42.261694-203.671864 0 0-6.682034-14.839322 38.53017-20.046102 45.125424-5.20678 51.11322-28.897627 57.014237-57.795254 0 0-2.169492-9.632542-12.583051-17.789831l-9.632542-11.194576s-13.277288-45.125424-74.804068-40.699661l-5.206779-6.682034-7.376272-31.848136s-17.008814 4.425763-17.78983 22.909831l-11.802034-14.839322c-0.173559 0-27.595932 13.364068-29.852203 54.844746z" p-id="3615"></path></svg>