<?xml version="1.0" encoding="utf-8"?>
<!-- Generator: Adobe Illustrator 22.0.1, SVG Export Plug-In . SVG Version: 6.00 Build 0)  -->
<svg version="1.1" id="图层_1" xmlns="http://www.w3.org/2000/svg" xmlns:xlink="http://www.w3.org/1999/xlink" x="0px" y="0px"
	 viewBox="0 0 1024 1024" style="enable-background:new 0 0 1024 1024;" xml:space="preserve">
<style type="text/css">
	.st0{fill:#FAF955;}
	.st1{fill:#FFFFFF;}
	.st2{fill:#D8301F;stroke:#000000;stroke-width:5;stroke-miterlimit:10;}
</style>
<circle cx="513" cy="510" r="512"/>
<path class="st0" d="M705.4,429.4c-24.6,0-48.2,0-71.9,0c-2.4-13.9-1.9-14.7,10.3-14.5c1,3.8,2,7.7,3,11.6c1.1,0.6,2.1,1.2,3.2,1.8
	c-0.5-14.1,8-18.4,19.9-18.9c-0.4-1.2-0.9-2.3-1.3-3.5c-4.3-0.5-8.6-1-12.6-1.5c-0.9-5.9-1.8-11.7-2.8-18c-4.8,3.7-10,9.1-11.2,8.3
	c-3.9-2.5-6.4-7.3-9-10.8c-2.2,3.9-5,8.9-8.4,14.9c6.6,7.1,6.3,8.2-4.7,12.8c2.9,5.7,5.8,11.5,8.7,17.3c-0.8,1.4-1.6,2.7-2.4,4.1
	c-101.2-5.1-202.4-10.2-305.3-15.4c1.1-7.3,1.6-12.3,2.7-17.1c8.6-40.6,23.7-77.7,51.2-109.9c21.1-24.7,46.1-38.1,78-42.4
	c46.9-6.3,93.1-7.1,139.6,3.7c54.4,12.6,84.8,48.9,101.9,99.2C702.6,375.7,704.7,401.5,705.4,429.4z M417.1,353.5
	c0.2-0.9,0.4-1.8,0.5-2.7c-3.1,0-6.1,0-9.2,0c-1-6.7-1.8-12.5-2.9-18.3c-1.1-5.6-2.7-11.1-4.1-16.6c-1.1-0.2-2.3-0.3-3.4-0.5
	c0,8.2,2.2,17.9-9.9,18c-1.8-4-3.6-7.8-6.1-13.2c-3.6,9.1,7,22.2-9.9,23.9c-1.6-4.7-3.2-9.5-4.7-14.2c0.2,13.5-2.3,24.9-16.7,31.3
	c0.9,0.6,1.7,1.3,2.6,1.9c4.1-1.5,8.2-2.9,11.9-4.2c7.2,10.4-0.7,15.7-5.8,20.5c5.4,2.5,10.3,4.7,15.7,7.2
	c-0.1-7.1-0.4-15,10.4-14.6c1.6,5.6,3.2,11.1,5.3,18.5c5.8-10.3-5.3-24.7,11.8-27.2c2.4,6.8,4.7,13.4,7.1,19.9
	c0.9-0.3,1.8-0.7,2.7-1c-0.7-6.7-1.3-13.4-2-20.5c6,0.9,10.6,1.6,17.4,2.7C422.8,359.3,420,356.4,417.1,353.5z"/>
<path class="st0" d="M270.3,455c-7.4-0.9-13.7-1.6-20.1-2.3c0-1.6-0.1-3.3-0.1-4.9c19.3-3.7,38.6-7.4,57.3-11c1.4,1.8,2.1,2.4,2.2,3
	c1.3,15.2,1.3,15,17.2,16.1c72,4.7,143.9,10.6,215.9,14.1c49.4,2.4,98.9,1.8,148.4,2.3c20.9,0.2,20.9,0,22-20.4
	c0.1-1.4,0.5-2.8,1-6.1c11.9,2.4,23.6,4,34.8,7.2c34.6,9.8,69.1,19.9,103.4,30.9c5.3,1.7,12.3,8.4,12.5,13c0.3,8.5-8.4,10.9-16,12.4
	c-64,12.9-128.8,17.8-194,19.9c-95.3,3-190.4-1.2-285.4-8c-54.5-3.9-109.2-6.3-162.3-20.9c-9.3-2.5-18.5-5.7-27.2-9.7
	c-9.2-4.3-10-13.3-2-19.4c18.2-13.8,40.3-16.5,61.8-20.3c2.9-0.5,6.7,4,10.1,6.1c-0.2,1.5-0.3,2.9-0.5,4.4c-8.4,2-16.8,4-25.5,6.1
	c0,0.7,0,4.4,0,8c3.7,0.9,8.5,2,14.5,3.5c-3.3,5.2-5.2,8.1-7.1,11c10.7-9.7,16.5,1.9,25.7,3.9c-2.8-4.1-5.6-8.1-9.7-14
	c5.9-3.5,11.4-6.8,17-10c0.3,0.8,0.7,1.7,1,2.5C266.9,466.8,268.4,461.6,270.3,455z M763.6,507.3c14.5-9.6,15.9-9.2,17.4,3.7
	c5.6-1.9,11.3-3.8,16.2-5.5c-1.5-2.5-3-5.1-4.6-7.8c3.1-1.4,6.2-2.8,8.9-4c-0.8-4.3-1.6-8.7-2.2-11.9c-4.6,0.6-9.4,1.2-15.5,2
	c1.9-6.1,2.9-9.3,4.1-13c-6.8,3.8-12.6,7.2-18.4,10.5c9.5,12.2-4,7.6-6.9,8.3C763.1,496.5,763.4,502,763.6,507.3z M439.9,515
	c1.8,0.7,3.5,1.4,5.3,2.1c5.5-12.6,11-25.2,16.4-37.9c-1.3-0.6-2.6-1.1-3.9-1.7C451.8,490.1,445.9,502.5,439.9,515z M442.1,486.6
	c-1.2-0.9-2.4-1.8-3.5-2.7c-6.2,9-12.4,17.9-18.6,26.9c1.2,0.8,2.4,1.7,3.6,2.5C429.8,504.4,435.9,495.5,442.1,486.6z"/>
<path class="st1" d="M498,779.2c1.8-36.8,3.4-73.6,5.5-110.3c1.1-18.9,3.1-20.2,21.6-18.7c18.2,1.4,29.8,9.3,33.6,22.7
	c4,13.8-2.6,38.8-13.7,45.9c-5.9,3.8-13.8,5-21,5.8c-6.1,0.7-8.5,2.7-8.7,8.7c-0.5,15.6-1.4,31.2-2.2,46.8
	c-0.2,4.1,0.1,8.5-1.5,12.1c-1.2,2.7-4.7,5.4-7.6,5.8c-1.6,0.2-4.9-3.9-5.6-6.5c-1-3.8-0.3-8.1-0.3-12.2
	C498.2,779.2,498.1,779.2,498,779.2z M518.5,691.7c-0.8,15.7,1.4,18.4,12.2,15c11.6-3.6,17.7-26.8,8.5-34.6
	c-3.8-3.2-10-4.4-15.2-4.6c-1.4,0-3.5,7-4.4,11C518.6,682.8,518.8,687.3,518.5,691.7z"/>
<path class="st1" d="M780.1,739.5c-22.2-2.7-39.6-20.8-39.9-42.7c-0.3-25.2,15.2-44.4,37.4-46.2c19.4-1.6,38.6,20.6,33.2,39.2
	c-1,3.3-6.5,7-10.3,7.4c-9.9,1.2-20,0.5-30,0.8c-9.2,0.2-12.2,5.9-7.4,13.8c4.6,7.7,16.5,11.2,26.9,7.7c2.8-0.9,5.3-3.4,8.1-3.5
	c4.6-0.3,9.3,0.6,13.9,1.1c-2.1,4.2-3.2,10.3-6.7,12.3C797.6,733.7,788.6,736.2,780.1,739.5z M790.4,679.8c0.5-1,1.1-2,1.6-3
	c-3.8-2.4-7.3-6.3-11.3-6.9c-6.6-0.9-12.7,1.5-16,9.9C774.1,679.8,782.3,679.8,790.4,679.8z"/>
<path class="st1" d="M395.9,697.9c6.2,11.8,1.6,22.5-10.6,27.5c-20,8.2-44.1-5.2-45.9-26.6c-1.1-13.5-0.9-27.6,1.6-40.9
	c3.3-17.6,20.8-26.3,37.9-21c15.8,4.8,24.6,22.5,18.5,38.6c-1.1,2.9-5.6,5.8-8.9,6.4c-6.5,1.1-13.4-0.1-20,0.8
	c-4.5,0.6-12.7,3.3-12.6,4.3c0.9,6.9,1.6,15.1,5.8,20c6.4,7.4,16.7,5.9,25.1-1.1C389.8,703.2,392.7,700.7,395.9,697.9z M355.2,664.4
	c9.8,0,18.4,0,27.1,0c0.8-1,1.5-1.9,2.3-2.9c-4.3-4.1-8.1-10.8-13-11.7C363.4,648.3,357.3,653.8,355.2,664.4z"/>
<path class="st1" d="M257.5,672c-2.1,9.5-3.4,19.5-6.7,28.8c-4.4,12.4-15.5,18.6-28.1,17.5c-11.8-1-21.1-8.7-24.6-20.9
	c-6-20.4-0.9-39.3,9.8-56.4c10.1-16.2,36.6-13.4,43.7,4.3C254.9,653.5,255.5,662.6,257.5,672z M242,671c-1-7.6-0.8-13.1-2.8-17.7
	c-1.5-3.6-5.6-7.8-9-8.4c-3.4-0.5-9.4,2.2-11,5.2c-7.8,14.9-10.8,30.8-3.2,46.8c1.6,3.3,6.6,6.9,10,6.9c3.3,0,8.4-3.9,9.6-7.2
	C238.8,687.7,240.3,678.2,242,671z"/>
<path class="st1" d="M288,641c2.2-1.2,5.4-3.4,8.8-4.7c15-6,30.1,0.9,30.9,16.5c1,18.8-1,37.8-2.8,56.6c-0.4,4.1-5.6,7.8-8.5,11.6
	c-1.5-4.4-4.3-8.9-4.3-13.3c0-16,1.3-32,1.2-47.9c-0.1-10.6-5.2-13.1-14.4-7.8c-9.4,5.4-16.3,12-15.5,24.6c0.6,9.9-0.3,20.2-2.1,30
	c-0.7,4.1-5.5,7.5-8.4,11.3c-1.6-3.8-4.7-7.6-4.7-11.3c0.2-19.7,0.8-39.4,2.1-59.1c0.3-4.2,3.5-8.6,6.6-11.7
	C277.8,634.8,283.1,638.6,288,641z"/>
<path class="st1" d="M621,695.7c0.2,16,7.2,21.5,21.1,17.6c1.4-0.4,2.9-1.3,4.3-1.2c4.2,0.1,8.4,0.6,12.6,0.9
	c-2.4,4.2-4,11-7.4,12.1c-7.4,2.4-16,3.6-23.7,2.3c-16.2-2.6-25.5-18.1-24.4-37.4c1.3-22.1,12-36.8,28.3-38.9
	c14.3-1.8,25.3,6.1,28.4,20.6c3.1,14.5-1.8,21.1-16.2,22.2C636.2,694.5,628.6,695.1,621,695.7z M644.3,676.4
	c0.7-1.3,1.4-2.6,2.1-3.9c-3.7-2.6-7.7-7.5-11-7.1c-4.6,0.5-8.6,5.2-12.9,8c0.6,1,1.2,2,1.8,3C631,676.4,637.7,676.4,644.3,676.4z"
	/>
<path class="st1" d="M672.2,692.4c1.3-17.7,11.6-33.1,25.9-37.6c10-3.1,22.7,1.5,26.7,10.5c1.2,2.6,0.2,6.1,0.2,9.2
	c-2.7-0.3-5.7,0.1-8-1c-14.8-7.2-22.8-3.2-25.5,13.2c-3.7,22.7,5.3,30.2,27.3,23.1c2.3-0.7,5.2,0.6,7.8,1c-0.6,2.7-0.5,5.9-2,8
	c-12.3,17.3-37.5,15.4-46.6-4C674.9,707.8,674.1,699.8,672.2,692.4z"/>
<path class="st1" d="M590.8,683.6c-1.5,12.1-2.7,24.3-4.9,36.3c-0.5,2.9-4.3,5.3-6.5,7.9c-2.1-3-6.3-6.1-6.1-9
	c0.9-19.2,2.5-38.4,4.4-57.5c0.2-2.3,3.2-4.2,4.9-6.3c2.4,2.5,6.4,4.7,6.8,7.4c1,6.9,0.3,14.1,0.3,21.1
	C590,683.5,590.4,683.5,590.8,683.6z"/>
<path class="st1" d="M597.7,641.2c-5.2,3.1-8.8,7-11.2,6.3c-3.3-0.9-5.6-5.2-8.3-8.1c3.1-2.5,6.1-6.5,9.4-6.8
	C590.1,632.3,593,636.9,597.7,641.2z"/>
<path class="st0" d="M255,461.6c-4.1,12.5-10.2,15.8-17.9,9.8C243,468.2,248.3,465.3,255,461.6z"/>
<path d="M417.1,353.5c2.8,2.9,5.6,5.8,10.6,10.9c-6.8-1-11.4-1.8-17.4-2.7c0.7,7.1,1.4,13.8,2,20.5c-0.9,0.3-1.8,0.7-2.7,1
	c-2.3-6.6-4.7-13.2-7.1-19.9c-17.1,2.6-6.1,16.9-11.8,27.2c-2.1-7.4-3.7-12.9-5.3-18.5c-10.7-0.4-10.4,7.5-10.4,14.6
	c-5.4-2.5-10.3-4.7-15.7-7.2c5.2-4.8,13-10.1,5.8-20.5c-3.7,1.3-7.8,2.8-11.9,4.2c-0.9-0.6-1.7-1.3-2.6-1.9
	c14.4-6.4,16.9-17.8,16.7-31.3c1.6,4.7,3.2,9.5,4.7,14.2c16.9-1.8,6.3-14.8,9.9-23.9c2.5,5.4,4.3,9.2,6.1,13.2
	c12-0.1,9.9-9.8,9.9-18c1.1,0.2,2.3,0.3,3.4,0.5c1.4,5.5,2.9,11,4.1,16.6c1.2,5.8,1.9,11.7,2.9,18.3c3.1,0,6.2,0,9.2,0
	C417.5,351.8,417.3,352.7,417.1,353.5z M375,368.1c12.7-5.3,13.8-8.6,7.3-20.7C370.8,350.7,371.3,358.4,375,368.1z M401,336.1
	c-12.4,6.1-13.1,8.6-7.2,23C408.3,355.5,399.7,345.1,401,336.1z"/>
<path d="M763.6,507.3c-0.3-5.3-0.6-10.8-0.9-17.7c2.9-0.6,16.4,3.9,6.9-8.3c5.8-3.3,11.6-6.6,18.4-10.5c-1.2,3.7-2.2,6.9-4.1,13
	c6.1-0.8,10.9-1.4,15.5-2c0.6,3.2,1.4,7.6,2.2,11.9c-2.7,1.2-5.8,2.6-8.9,4c1.5,2.6,3.1,5.3,4.6,7.8c-4.9,1.7-10.6,3.6-16.2,5.5
	C779.6,498.1,778.1,497.7,763.6,507.3z"/>
<path d="M439.9,515c5.9-12.5,11.9-24.9,17.8-37.4c1.3,0.6,2.6,1.1,3.9,1.7c-5.5,12.6-11,25.2-16.4,37.9
	C443.4,516.4,441.7,515.7,439.9,515z"/>
<path d="M442.1,486.6c-6.2,8.9-12.4,17.8-18.5,26.7c-1.2-0.8-2.4-1.7-3.6-2.5c6.2-9,12.4-17.9,18.6-26.9
	C439.8,484.8,440.9,485.7,442.1,486.6z"/>
<path class="st0" d="M375,368.1c-3.6-9.7-4.1-17.4,7.3-20.7C388.8,359.5,387.7,362.9,375,368.1z"/>
<path class="st0" d="M401,336.1c-1.3,9,7.3,19.4-7.2,23C387.9,344.7,388.6,342.2,401,336.1z"/>
<path class="st2" d="M316.7,424l-4.8,6.5c-3.1,4.1-4,9.4-2.7,14.3l0.5,1.8c1.5,5.5,6.2,9.7,11.9,10.5c54,8.1,311.4,23,392,9.4
	c0,0-0.5-0.5,0.5-20.5s-9-17-9-17l-375.4-11.3C324.5,417.6,319.7,419.9,316.7,424z"/>
<polygon class="st0" points="634,404 641,397 652,404 645,412 "/>
</svg>
